<?xml version="1.0" encoding="UTF-8"?>
<svg width="192" height="192" version="1.1" viewBox="0 0 192 192" xmlns="http://www.w3.org/2000/svg" xmlns:cc="http://creativecommons.org/ns#" xmlns:dc="http://purl.org/dc/elements/1.1/" xmlns:rdf="http://www.w3.org/1999/02/22-rdf-syntax-ns#" xmlns:xlink="http://www.w3.org/1999/xlink">
 <defs>
  <linearGradient id="d">
   <stop stop-color="#fff" stop-opacity=".81176" offset="0"/>
   <stop stop-opacity="0" offset="1"/>
  </linearGradient>
  <linearGradient id="i" x1="96" x2="96" y1="148" y2="132" gradientTransform="matrix(1.44,0,0,1.44,-42.24,-42.24)" gradientUnits="userSpaceOnUse">
   <stop offset="0"/>
   <stop stop-color="#b3b3b3" offset="1"/>
  </linearGradient>
  <linearGradient id="h" x1="80" x2="100" y1="80" y2="104" gradientTransform="matrix(1.44,0,0,1.44,-42.24,-42.24)" gradientUnits="userSpaceOnUse">
   <stop stop-color="#fff" stop-opacity=".75294" offset="0"/>
   <stop stop-opacity="0" offset="1"/>
  </linearGradient>
  <linearGradient id="g" x1="36" x2="96" y1="44" y2="96" gradientTransform="matrix(1.44,0,0,1.44,-42.24,-42.24)" gradientUnits="userSpaceOnUse">
   <stop stop-color="#fff" stop-opacity=".73333" offset="0"/>
   <stop stop-color="#666" stop-opacity="0" offset="1"/>
  </linearGradient>
  <linearGradient id="f" x1="116" x2="96" y1="104" y2="92" gradientTransform="matrix(1.44,0,0,1.44,-42.24,-42.24)" gradientUnits="userSpaceOnUse">
   <stop offset="0"/>
   <stop stop-opacity="0" offset="1"/>
  </linearGradient>
  <linearGradient id="e" x1="36" x2="96" y1="96" y2="148" gradientTransform="matrix(1.44,0,0,1.44,-42.24,-42.24)" gradientUnits="userSpaceOnUse">
   <stop stop-color="#fffff0" offset="0"/>
   <stop stop-color="#b3b3b3" stop-opacity="0" offset="1"/>
  </linearGradient>
  <linearGradient id="c" x1="76" x2="128" y1="72" y2="124" gradientUnits="userSpaceOnUse" xlink:href="#d"/>
  <radialGradient id="a" cx="96" cy="96" r="28" gradientTransform="matrix(1.6457 1.007e-6 -2.0492e-7 1.6457 -56.229 -50.469)" gradientUnits="userSpaceOnUse">
   <stop offset="0"/>
   <stop offset=".375"/>
   <stop stop-opacity="0" offset="1"/>
  </radialGradient>
  <linearGradient id="b" x1="96" x2="96" y1="96" y2="70" gradientTransform="matrix(1.44 0 0 .44308 -42.24 53.465)" gradientUnits="userSpaceOnUse">
   <stop offset="0"/>
   <stop stop-opacity="0" offset="1"/>
  </linearGradient>
 </defs>
 <metadata>
  <rdf:RDF>
   <cc:Work rdf:about="">
    <dc:format>image/svg+xml</dc:format>
    <dc:type rdf:resource="http://purl.org/dc/dcmitype/StillImage"/>
    <dc:title/>
   </cc:Work>
  </rdf:RDF>
 </metadata>
 <g>
  <path d="m182.4 96v-57.6c0-9.5731-7.7069-17.28-17.28-17.28h-138.24c-9.5731 0-17.28 7.7069-17.28 17.28v57.6z" fill="#666" stroke-width="1.44"/>
  <path d="m182.4 96v-17.723c0-2.9456-7.7069-5.3169-17.28-5.3169h-138.24c-9.5731 0-17.28 2.3713-17.28 5.3169v17.723z" fill="url(#b)" stroke-width=".79877"/>
  <circle cx="101.76" cy="107.52" r="46.08" fill="url(#a)" stroke-width="1.44"/>
  <path d="m182.4 96v-57.6c0-9.5731-7.7069-17.28-17.28-17.28h-138.24c-9.5731 0-17.28 7.7069-17.28 17.28v57.6z" fill="url(#g)" stroke-width="1.44"/>
  <g stroke-width="1.1758">
   <path d="m102.72 57.616c-2.0712-0.48552-4.1284 0.79035-4.6139 2.8616l-1.5559 6.6376c-4.1118-0.12339-8.1064 0.66601-11.777 2.1791l-3.7412-6.0247c-1.0589-1.7933-3.4408-2.3516-5.1863-1.2157l-3.2838 2.0179c-1.8296 1.1161-2.3825 3.4746-1.2395 5.2876l3.9306 6.3262c-2.6501 2.6763-4.8215 5.8738-6.2753 9.5178l-7.7931-1.8268c-2.0712-0.48552-4.1284 0.79035-4.6139 2.8616l-0.87681 3.7405c-0.48552 2.0712 0.79035 4.1284 2.8616 4.6139l8.3955 1.968c0.07926 3.582 0.82108 7.0548 2.1468 10.276l-7.7473 4.805c-1.8079 1.1212-2.3607 3.4797-1.2395 5.2876l2.0251 3.2652c1.1213 1.8079 3.4797 2.3608 5.2876 1.2395l8.1056-5.0272c2.3353 2.3046 5.0577 4.2512 8.1382 5.666l-1.6285 6.947c-0.44506 1.8986 0.72607 3.7869 2.6247 4.2319l4.3593 1.0219c1.8986 0.44505 3.7869-0.72603 4.232-2.6247l1.6285-6.947c3.3884 0.10164 6.6922-0.43236 9.8084-1.4591l5.0271 8.1056c1.1212 1.8079 3.4797 2.3607 5.2876 1.2395l3.2652-2.0251c1.8079-1.1212 2.3608-3.4797 1.2395-5.2876l-4.8049-7.7473c2.619-2.2964 4.8269-5.0777 6.4898-8.2513l8.3955 1.968c2.0712 0.48551 4.1284-0.79037 4.6139-2.8616l0.87682-3.7405c0.4855-2.0712-0.79035-4.1284-2.8616-4.6139l-7.7931-1.8268c0.31397-3.8729-0.19812-7.666-1.3583-11.212l6.4413-3.9902c1.7455-1.1359 2.2983-3.4944 1.2395-5.2876l-2.0449-3.267c-1.1991-1.8261-3.443-2.3521-5.3287-1.2491l-6.0289 3.7345c-2.6157-2.9866-5.8434-5.469-9.5817-7.1858l1.5559-6.6376c0.48553-2.0712-0.79036-4.1284-2.8616-4.6139zm-7.5197 15.258-1.3736 5.8599a17.28 17.28 0 0 0-2.8461 0.55765l-3.1291-5.0377a23.04 23.04 0 0 1 7.3489-1.3799zm11.216 2.6291a23.04 23.04 0 0 1 5.9674 4.5013l-5.0385 3.1202a17.28 17.28 0 0 0-2.3018-1.7644zm-28.033 5.2264 3.2276 5.1966a17.28 17.28 0 0 0-1.1957 1.9585l-5.7476-1.3473a23.04 23.04 0 0 1 3.7157-5.8078zm39.634 9.3888a23.04 23.04 0 0 1 0.72019 6.7494l-5.7449-1.3467a17.28 17.28 0 0 0-0.1862-2.1755zm-45.25 7.8056 6.0132 1.4096a17.28 17.28 0 0 0 0.31593 1.3018l-5.0398 3.1257a23.04 23.04 0 0 1-1.2894-5.8371zm36.6 8.5794 6.016 1.4102a23.04 23.04 0 0 1-3.7546 4.6547l-3.1236-5.0364a17.28 17.28 0 0 0 0.86217-1.0285zm-23.585 3.5421a17.28 17.28 0 0 0 0.60844 0.41126l-1.373 5.8572a23.04 23.04 0 0 1-4.4409-3.04zm12.554 2.9458 3.2264 5.202a23.04 23.04 0 0 1-5.3293 0.74978l1.3736-5.8599a17.28 17.28 0 0 0 0.72931-0.0919z" fill="#db123c"/>
   <path d="m101.95 57.514c-1.788-0.05273-3.4171 1.1521-3.8419 2.9644l-1.5553 6.6375c-4.1118-0.12339-8.1055 0.66659-11.776 2.1797l-3.7406-6.0244c-1.0589-1.7933-3.4408-2.3537-5.1862-1.2178l-3.285 2.0194c-1.8296 1.1161-2.3833 3.4745-1.2403 5.2875l3.9319 6.3253c-2.6501 2.6763-4.8209 5.8735-6.2747 9.5175l-7.7934-1.8253c-2.0712-0.48552-4.1298 0.78909-4.6153 2.8603l-0.8775 3.7406c-0.48552 2.0712 0.7919 4.1298 2.8631 4.6153l6.0047 1.4062h50.476l-2.0447-0.47812a17.28 17.28 0 0 0-0.18562-2.1769l5.2116-3.2259a23.04 23.04 0 0 1 0.7397 5.8809h5.7516c5e-3 -3.1059-0.50078-6.1406-1.44-9.0112l6.4406-3.9881c1.7455-1.1359 2.2992-3.4943 1.2403-5.2875l-2.0447-3.2681c-1.1991-1.8261-3.444-2.3518-5.3297-1.2488l-6.0272 3.735c-2.6157-2.9866-5.8439-5.4692-9.5822-7.1859l1.5553-6.6375c0.48552-2.0712-0.78907-4.1298-2.8603-4.6153l-3.7406-0.8775c-0.25889-0.0607-0.518-0.09372-0.77343-0.10124zm-6.7472 15.359-1.3725 5.8612a17.28 17.28 0 0 0-2.8463 0.55687l-3.1303-5.0372a23.04 23.04 0 0 1 7.3491-1.3809zm11.216 2.6297a23.04 23.04 0 0 1 5.9681 4.5028l-5.04 3.1191a17.28 17.28 0 0 0-2.3006-1.7634zm-28.032 5.2256 3.2288 5.1975a17.28 17.28 0 0 0-1.1981 1.9575l-5.7459-1.3472a23.04 23.04 0 0 1 3.7153-5.8078z" fill="url(#f)"/>
   <path d="m101.95 57.514c-1.788-0.05273-3.4171 1.1521-3.8419 2.9644l-1.5553 6.6375c-4.1118-0.12339-8.1055 0.66659-11.776 2.1797l-3.7406-6.0244c-1.0589-1.7933-3.4408-2.3537-5.1862-1.2178l-3.285 2.0194c-1.8296 1.1161-2.3833 3.4745-1.2403 5.2875l3.9319 6.3253c-2.6501 2.6763-4.8209 5.8735-6.2747 9.5175l-7.7934-1.8253c-2.0712-0.48552-4.1298 0.78909-4.6153 2.8603l-0.8775 3.7406c-0.48552 2.0712 0.7919 4.1298 2.8631 4.6153l6.0047 1.4062h50.476l-2.0447-0.47812a17.28 17.28 0 0 0-0.18562-2.1769l5.2116-3.2259a23.04 23.04 0 0 1 0.7397 5.8809h5.7516c5e-3 -3.1059-0.50078-6.1406-1.44-9.0112l6.4406-3.9881c1.7455-1.1359 2.2992-3.4943 1.2403-5.2875l-2.0447-3.2681c-1.1991-1.8261-3.444-2.3518-5.3297-1.2488l-6.0272 3.735c-2.6157-2.9866-5.8439-5.4692-9.5822-7.1859l1.5553-6.6375c0.48552-2.0712-0.78907-4.1298-2.8603-4.6153l-3.7406-0.8775c-0.25889-0.0607-0.518-0.09372-0.77343-0.10124zm-6.7472 15.359-1.3725 5.8612a17.28 17.28 0 0 0-2.8463 0.55687l-3.1303-5.0372a23.04 23.04 0 0 1 7.3491-1.3809zm11.216 2.6297a23.04 23.04 0 0 1 5.9681 4.5028l-5.04 3.1191a17.28 17.28 0 0 0-2.3006-1.7634zm-28.032 5.2256 3.2288 5.1975a17.28 17.28 0 0 0-1.1981 1.9575l-5.7459-1.3472a23.04 23.04 0 0 1 3.7153-5.8078z" fill="url(#h)"/>
  </g>
  <path d="m182.4 96v57.6c0 9.5731-7.7069 17.28-17.28 17.28h-138.24c-9.5731 0-17.28-7.7069-17.28-17.28v-57.6z" fill="url(#i)" stroke-width="1.44"/>
  <path d="m182.4 96v57.6c0 9.5731-7.7069 17.28-17.28 17.28h-138.24c-9.5731 0-17.28-7.7069-17.28-17.28v-57.6z" fill="url(#e)" stroke-width="1.44"/>
  <g transform="matrix(1.44,0,0,1.44,-42.24,-42.24)" aria-label="toolbox">
   <path d="m65.72 128.26q0.4 0 0.82-0.06 0.42-0.08 0.68-0.16v1.34q-0.28 0.14-0.8 0.22-0.52 0.1-1 0.1-0.84 0-1.56-0.28-0.7-0.3-1.14-1.02t-0.44-2.02v-6.24h-1.52v-0.84l1.54-0.7 0.7-2.28h1.04v2.46h3.1v1.36h-3.1v6.2q0 0.98 0.46 1.46 0.48 0.46 1.22 0.46z"/>
   <path d="m78.68 124.12q0 2.66-1.36 4.12-1.34 1.46-3.64 1.46-1.42 0-2.54-0.64-1.1-0.66-1.74-1.9-0.64-1.26-0.64-3.04 0-2.66 1.34-4.1t3.64-1.44q1.46 0 2.56 0.66 1.12 0.64 1.74 1.88 0.64 1.22 0.64 3zm-8.1 0q0 1.9 0.74 3.02 0.76 1.1 2.4 1.1 1.62 0 2.38-1.1 0.76-1.12 0.76-3.02t-0.76-2.98-2.4-1.08-2.38 1.08-0.74 2.98z"/>
   <path d="m90.78 124.12q0 2.66-1.36 4.12-1.34 1.46-3.64 1.46-1.42 0-2.54-0.64-1.1-0.66-1.74-1.9-0.64-1.26-0.64-3.04 0-2.66 1.34-4.1t3.64-1.44q1.46 0 2.56 0.66 1.12 0.64 1.74 1.88 0.64 1.22 0.64 3zm-8.1 0q0 1.9 0.74 3.02 0.76 1.1 2.4 1.1 1.62 0 2.38-1.1 0.76-1.12 0.76-3.02t-0.76-2.98-2.4-1.08-2.38 1.08-0.74 2.98z"/>
   <path d="m95.32 129.5h-1.76v-15.2h1.76z"/>
   <path d="m100.48 118q0 0.68-0.04 1.28-0.02 0.58-0.06 0.92h0.1q0.46-0.68 1.26-1.14t2.06-0.46q2 0 3.2 1.4 1.22 1.38 1.22 4.14t-1.22 4.16-3.2 1.4q-1.26 0-2.06-0.46t-1.26-1.1h-0.14l-0.36 1.36h-1.26v-15.2h1.76zm3.02 2.06q-1.7 0-2.36 0.98t-0.66 3.04v0.08q0 1.98 0.64 3.04 0.66 1.04 2.42 1.04 1.44 0 2.14-1.06 0.72-1.06 0.72-3.06 0-4.06-2.9-4.06z"/>
   <path d="m120.34 124.12q0 2.66-1.36 4.12-1.34 1.46-3.64 1.46-1.42 0-2.54-0.64-1.1-0.66-1.74-1.9-0.64-1.26-0.64-3.04 0-2.66 1.34-4.1t3.64-1.44q1.46 0 2.56 0.66 1.12 0.64 1.74 1.88 0.64 1.22 0.64 3zm-8.1 0q0 1.9 0.74 3.02 0.76 1.1 2.4 1.1 1.62 0 2.38-1.1 0.76-1.12 0.76-3.02t-0.76-2.98-2.4-1.08-2.38 1.08-0.74 2.98z"/>
   <path d="m125.26 124.02-3.7-5.24h2l2.76 4.04 2.74-4.04h1.98l-3.7 5.24 3.9 5.48h-2l-2.92-4.28-2.96 4.28h-1.98z"/>
  </g>
  <g transform="matrix(1.44,0,0,1.44,-42.24,-42.24)" fill="url(#c)" aria-label="toolbox">
   <path d="m65.72 128.26q0.4 0 0.82-0.06 0.42-0.08 0.68-0.16v1.34q-0.28 0.14-0.8 0.22-0.52 0.1-1 0.1-0.84 0-1.56-0.28-0.7-0.3-1.14-1.02t-0.44-2.02v-6.24h-1.52v-0.84l1.54-0.7 0.7-2.28h1.04v2.46h3.1v1.36h-3.1v6.2q0 0.98 0.46 1.46 0.48 0.46 1.22 0.46z"/>
   <path d="m78.68 124.12q0 2.66-1.36 4.12-1.34 1.46-3.64 1.46-1.42 0-2.54-0.64-1.1-0.66-1.74-1.9-0.64-1.26-0.64-3.04 0-2.66 1.34-4.1t3.64-1.44q1.46 0 2.56 0.66 1.12 0.64 1.74 1.88 0.64 1.22 0.64 3zm-8.1 0q0 1.9 0.74 3.02 0.76 1.1 2.4 1.1 1.62 0 2.38-1.1 0.76-1.12 0.76-3.02t-0.76-2.98-2.4-1.08-2.38 1.08-0.74 2.98z"/>
   <path d="m90.78 124.12q0 2.66-1.36 4.12-1.34 1.46-3.64 1.46-1.42 0-2.54-0.64-1.1-0.66-1.74-1.9-0.64-1.26-0.64-3.04 0-2.66 1.34-4.1t3.64-1.44q1.46 0 2.56 0.66 1.12 0.64 1.74 1.88 0.64 1.22 0.64 3zm-8.1 0q0 1.9 0.74 3.02 0.76 1.1 2.4 1.1 1.62 0 2.38-1.1 0.76-1.12 0.76-3.02t-0.76-2.98-2.4-1.08-2.38 1.08-0.74 2.98z"/>
   <path d="m95.32 129.5h-1.76v-15.2h1.76z"/>
   <path d="m100.48 118q0 0.68-0.04 1.28-0.02 0.58-0.06 0.92h0.1q0.46-0.68 1.26-1.14t2.06-0.46q2 0 3.2 1.4 1.22 1.38 1.22 4.14t-1.22 4.16-3.2 1.4q-1.26 0-2.06-0.46t-1.26-1.1h-0.14l-0.36 1.36h-1.26v-15.2h1.76zm3.02 2.06q-1.7 0-2.36 0.98t-0.66 3.04v0.08q0 1.98 0.64 3.04 0.66 1.04 2.42 1.04 1.44 0 2.14-1.06 0.72-1.06 0.72-3.06 0-4.06-2.9-4.06z"/>
   <path d="m120.34 124.12q0 2.66-1.36 4.12-1.34 1.46-3.64 1.46-1.42 0-2.54-0.64-1.1-0.66-1.74-1.9-0.64-1.26-0.64-3.04 0-2.66 1.34-4.1t3.64-1.44q1.46 0 2.56 0.66 1.12 0.64 1.74 1.88 0.64 1.22 0.64 3zm-8.1 0q0 1.9 0.74 3.02 0.76 1.1 2.4 1.1 1.62 0 2.38-1.1 0.76-1.12 0.76-3.02t-0.76-2.98-2.4-1.08-2.38 1.08-0.74 2.98z"/>
   <path d="m125.26 124.02-3.7-5.24h2l2.76 4.04 2.74-4.04h1.98l-3.7 5.24 3.9 5.48h-2l-2.92-4.28-2.96 4.28h-1.98z"/>
  </g>
 </g>
</svg>
