<?xml version="1.0" encoding="UTF-8"?>
<svg width="192" height="192" version="1.1" viewBox="0 0 192 192" xmlns="http://www.w3.org/2000/svg" xmlns:cc="http://creativecommons.org/ns#" xmlns:dc="http://purl.org/dc/elements/1.1/" xmlns:rdf="http://www.w3.org/1999/02/22-rdf-syntax-ns#" xmlns:xlink="http://www.w3.org/1999/xlink">
 <defs>
  <linearGradient id="a">
   <stop stop-color="#333" offset="0"/>
   <stop stop-opacity="0" offset="1"/>
  </linearGradient>
  <linearGradient id="g">
   <stop stop-color="#fff" stop-opacity=".81176" offset="0"/>
   <stop stop-opacity="0" offset="1"/>
  </linearGradient>
  <linearGradient id="l" x1="96" x2="96" y1="148" y2="132" gradientUnits="userSpaceOnUse">
   <stop offset="0"/>
   <stop stop-color="#b3b3b3" offset="1"/>
  </linearGradient>
  <linearGradient id="k" x1="80" x2="100" y1="80" y2="104" gradientTransform="matrix(.6561 0 0 .6561 33.014 33.014)" gradientUnits="userSpaceOnUse">
   <stop stop-color="#fff" stop-opacity=".75294" offset="0"/>
   <stop stop-opacity="0" offset="1"/>
  </linearGradient>
  <linearGradient id="j" x1="36" x2="96" y1="44" y2="96" gradientTransform="matrix(.6561 0 0 .6561 33.014 33.014)" gradientUnits="userSpaceOnUse">
   <stop stop-color="#fff" stop-opacity=".73333" offset="0"/>
   <stop stop-color="#666" stop-opacity="0" offset="1"/>
  </linearGradient>
  <linearGradient id="i" x1="116" x2="96" y1="104" y2="92" gradientTransform="matrix(.6561 0 0 .6561 33.014 33.014)" gradientUnits="userSpaceOnUse">
   <stop offset="0"/>
   <stop stop-opacity="0" offset="1"/>
  </linearGradient>
  <linearGradient id="h" x1="36" x2="96" y1="96" y2="148" gradientUnits="userSpaceOnUse">
   <stop stop-color="#fffff0" offset="0"/>
   <stop stop-color="#b3b3b3" stop-opacity="0" offset="1"/>
  </linearGradient>
  <radialGradient id="c" cx="96" cy="96" r="28" gradientTransform="matrix(.74983 4.588e-7 -9.3368e-8 .74983 26.641 29.265)" gradientUnits="userSpaceOnUse">
   <stop offset="0"/>
   <stop offset=".375"/>
   <stop stop-opacity="0" offset="1"/>
  </radialGradient>
  <linearGradient id="e" x1="96" x2="96" y1="96" y2="70" gradientTransform="matrix(.6561 0 0 .20188 33.014 76.62)" gradientUnits="userSpaceOnUse">
   <stop offset="0"/>
   <stop stop-opacity="0" offset="1"/>
  </linearGradient>
  <linearGradient id="d" x1="76" x2="128" y1="72" y2="124" gradientUnits="userSpaceOnUse" xlink:href="#g"/>
  <radialGradient id="b" cx="96" cy="96" r="80" gradientUnits="userSpaceOnUse" xlink:href="#a"/>
  <linearGradient id="f" x1="40" x2="152" y1="40" y2="152" gradientUnits="userSpaceOnUse" xlink:href="#a"/>
 </defs>
 <metadata>
  <rdf:RDF>
   <cc:Work rdf:about="">
    <dc:format>image/svg+xml</dc:format>
    <dc:type rdf:resource="http://purl.org/dc/dcmitype/StillImage"/>
    <dc:title/>
   </cc:Work>
  </rdf:RDF>
 </metadata>
 <circle cx="96" cy="96" r="80" fill-rule="evenodd"/>
 <g>
  <circle cx="96" cy="96" r="80" fill="url(#b)" fill-rule="evenodd"/>
  <circle cx="96" cy="96" r="80" fill="url(#f)" fill-rule="evenodd"/>
  <path d="m135.37 96v-26.244c0-4.3618-3.5114-7.8732-7.8732-7.8732h-62.986c-4.3618 0-7.8732 3.5114-7.8732 7.8732v26.244z" fill="#666" stroke-width=".6561"/>
  <path d="m135.37 96v-8.0751c0-1.3421-3.5114-2.4225-7.8732-2.4225h-62.986c-4.3618 0-7.8732 1.0804-7.8732 2.4225v8.0751z" fill="url(#e)" stroke-width=".36394"/>
  <ellipse cx="98.624" cy="101.25" rx="20.995" ry="20.995" fill="url(#c)" stroke-width=".6561"/>
  <path d="m135.37 96v-26.244c0-4.3618-3.5114-7.8732-7.8732-7.8732h-62.986c-4.3618 0-7.8732 3.5114-7.8732 7.8732v26.244z" fill="url(#j)" stroke-width=".6561"/>
  <g stroke-width=".5357">
   <path d="m99.062 78.511c-0.9437-0.22121-1.881 0.3601-2.1022 1.3038l-0.70892 3.0242c-1.8734-0.05622-3.6935 0.30345-5.3658 0.99286l-1.7046-2.745c-0.48244-0.81706-1.5677-1.0714-2.363-0.55391l-1.4962 0.9194c-0.83361 0.50854-1.0855 1.5831-0.56474 2.4092l1.7909 2.8824c-1.2074 1.2194-2.1968 2.6762-2.8592 4.3365l-3.5507-0.83234c-0.9437-0.22121-1.881 0.3601-2.1022 1.3038l-0.3995 1.7043c-0.22121 0.9437 0.3601 1.881 1.3038 2.1022l3.8252 0.89667c0.03612 1.632 0.37411 3.2143 0.97812 4.6819l-3.5299 2.1893c-0.82372 0.51086-1.0756 1.5854-0.56474 2.4092l0.92269 1.4877c0.51087 0.82371 1.5854 1.0756 2.4092 0.56474l3.6931-2.2905c1.064 1.05 2.3044 1.937 3.708 2.5815l-0.74197 3.1652c-0.20278 0.86505 0.33082 1.7254 1.1959 1.9282l1.9862 0.46559c0.86506 0.20278 1.7254-0.33079 1.9282-1.1959l0.74196-3.1652c1.5438 0.0463 3.0491-0.197 4.469-0.66478l2.2905 3.6931c0.51087 0.82372 1.5854 1.0756 2.4092 0.56472l1.4877-0.92268c0.82373-0.51086 1.0756-1.5855 0.56474-2.4092l-2.1892-3.5299c1.1933-1.0463 2.1993-2.3135 2.9569-3.7595l3.8252 0.89667c0.94372 0.22122 1.881-0.3601 2.1022-1.3038l0.39951-1.7043c0.22121-0.9437-0.3601-1.881-1.3038-2.1022l-3.5507-0.83233c0.14305-1.7646-0.0903-3.4928-0.61887-5.1084l2.9348-1.8181c0.79529-0.51754 1.0472-1.5921 0.56474-2.4092l-0.93173-1.4885c-0.54632-0.83202-1.5687-1.0717-2.4279-0.56912l-2.7469 1.7015c-1.1918-1.3608-2.6624-2.4918-4.3656-3.274l0.70891-3.0242c0.22122-0.9437-0.36011-1.881-1.3038-2.1022zm-3.4262 6.9518-0.62586 2.6699a7.8732 7.8732 0 0 0-1.2968 0.25408l-1.4257-2.2953a10.498 10.498 0 0 1 3.3483-0.6287zm5.1103 1.1979a10.498 10.498 0 0 1 2.7189 2.0509l-2.2957 1.4217a7.8732 7.8732 0 0 0-1.0488-0.8039zm-12.772 2.3813 1.4706 2.3677a7.8732 7.8732 0 0 0-0.5448 0.89233l-2.6188-0.61387a10.498 10.498 0 0 1 1.693-2.6462zm18.058 4.2778a10.498 10.498 0 0 1 0.32812 3.0752l-2.6175-0.61358a7.8732 7.8732 0 0 0-0.0849-0.99123zm-20.617 3.5564 2.7398 0.64224a7.8732 7.8732 0 0 0 0.14394 0.59312l-2.2963 1.4242a10.498 10.498 0 0 1-0.58746-2.6595zm16.676 3.909 2.741 0.64254a10.498 10.498 0 0 1-1.7107 2.1208l-1.4232-2.2947a7.8732 7.8732 0 0 0 0.39282-0.46862zm-10.746 1.6139a7.8732 7.8732 0 0 0 0.27722 0.18738l-0.62557 2.6687a10.498 10.498 0 0 1-2.0234-1.3851zm5.7201 1.3422 1.47 2.3702a10.498 10.498 0 0 1-2.4281 0.34162l0.62586-2.6699a7.8732 7.8732 0 0 0 0.33229-0.0418z" fill="#db123c"/>
   <path d="m98.71 78.465c-0.81464-0.02402-1.5569 0.5249-1.7505 1.3506l-0.70864 3.0242c-1.8734-0.05622-3.6931 0.30372-5.3654 0.99312l-1.7043-2.7449c-0.48244-0.81706-1.5677-1.0724-2.363-0.55486l-1.4967 0.92008c-0.83361 0.50854-1.0859 1.5831-0.56512 2.4091l1.7915 2.882c-1.2074 1.2194-2.1965 2.6761-2.8589 4.3364l-3.5509-0.83166c-0.9437-0.22121-1.8816 0.35953-2.1029 1.3032l-0.39981 1.7043c-0.22121 0.9437 0.36081 1.8816 1.3045 2.1029l2.7359 0.64072h22.998l-0.93161-0.21785a7.8732 7.8732 0 0 0-0.0846-0.99184l2.3745-1.4698a10.498 10.498 0 0 1 0.33704 2.6795h2.6206c3e-3 -1.4151-0.22817-2.7978-0.6561-4.1058l2.9345-1.8171c0.79528-0.51754 1.0476-1.5921 0.56512-2.4091l-0.93161-1.489c-0.54633-0.83202-1.5692-1.0715-2.4283-0.56896l-2.7462 1.7018c-1.1918-1.3608-2.6626-2.4919-4.3659-3.2741l0.70862-3.0242c0.22123-0.9437-0.35951-1.8816-1.3032-2.1029l-1.7043-0.39981c-0.11796-0.02767-0.23602-0.0427-0.3524-0.04613zm-3.0742 6.998-0.62534 2.6705a7.8732 7.8732 0 0 0-1.2968 0.25373l-1.4262-2.2951a10.498 10.498 0 0 1 3.3484-0.62919zm5.1104 1.1982a10.498 10.498 0 0 1 2.7192 2.0516l-2.2964 1.4211a7.8732 7.8732 0 0 0-1.0482-0.80347zm-12.772 2.3809 1.4711 2.3681a7.8732 7.8732 0 0 0-0.5459 0.89189l-2.618-0.61381a10.498 10.498 0 0 1 1.6928-2.6462z" fill="url(#i)"/>
   <path d="m98.71 78.465c-0.81464-0.02402-1.5569 0.5249-1.7505 1.3506l-0.70864 3.0242c-1.8734-0.05622-3.6931 0.30372-5.3654 0.99312l-1.7043-2.7449c-0.48244-0.81706-1.5677-1.0724-2.363-0.55486l-1.4967 0.92008c-0.83361 0.50854-1.0859 1.5831-0.56512 2.4091l1.7915 2.882c-1.2074 1.2194-2.1965 2.6761-2.8589 4.3364l-3.5509-0.83166c-0.9437-0.22121-1.8816 0.35953-2.1029 1.3032l-0.39981 1.7043c-0.22121 0.9437 0.36081 1.8816 1.3045 2.1029l2.7359 0.64072h22.998l-0.93161-0.21785a7.8732 7.8732 0 0 0-0.0846-0.99184l2.3745-1.4698a10.498 10.498 0 0 1 0.33704 2.6795h2.6206c3e-3 -1.4151-0.22817-2.7978-0.6561-4.1058l2.9345-1.8171c0.79528-0.51754 1.0476-1.5921 0.56512-2.4091l-0.93161-1.489c-0.54633-0.83202-1.5692-1.0715-2.4283-0.56896l-2.7462 1.7018c-1.1918-1.3608-2.6626-2.4919-4.3659-3.2741l0.70862-3.0242c0.22123-0.9437-0.35951-1.8816-1.3032-2.1029l-1.7043-0.39981c-0.11796-0.02767-0.23602-0.0427-0.3524-0.04613zm-3.0742 6.998-0.62534 2.6705a7.8732 7.8732 0 0 0-1.2968 0.25373l-1.4262-2.2951a10.498 10.498 0 0 1 3.3484-0.62919zm5.1104 1.1982a10.498 10.498 0 0 1 2.7192 2.0516l-2.2964 1.4211a7.8732 7.8732 0 0 0-1.0482-0.80347zm-12.772 2.3809 1.4711 2.3681a7.8732 7.8732 0 0 0-0.5459 0.89189l-2.618-0.61381a10.498 10.498 0 0 1 1.6928-2.6462z" fill="url(#k)"/>
  </g>
 </g>
 <g transform="matrix(.6561 0 0 .6561 33.014 33.014)">
  <path d="m156 96v40c0 6.648-5.352 12-12 12h-96c-6.648 0-12-5.352-12-12v-40z" fill="url(#l)"/>
  <path d="m156 96v40c0 6.648-5.352 12-12 12h-96c-6.648 0-12-5.352-12-12v-40z" fill="url(#h)"/>
  <g aria-label="toolbox">
   <path d="m65.72 128.26q0.4 0 0.82-0.06 0.42-0.08 0.68-0.16v1.34q-0.28 0.14-0.8 0.22-0.52 0.1-1 0.1-0.84 0-1.56-0.28-0.7-0.3-1.14-1.02t-0.44-2.02v-6.24h-1.52v-0.84l1.54-0.7 0.7-2.28h1.04v2.46h3.1v1.36h-3.1v6.2q0 0.98 0.46 1.46 0.48 0.46 1.22 0.46z"/>
   <path d="m78.68 124.12q0 2.66-1.36 4.12-1.34 1.46-3.64 1.46-1.42 0-2.54-0.64-1.1-0.66-1.74-1.9-0.64-1.26-0.64-3.04 0-2.66 1.34-4.1t3.64-1.44q1.46 0 2.56 0.66 1.12 0.64 1.74 1.88 0.64 1.22 0.64 3zm-8.1 0q0 1.9 0.74 3.02 0.76 1.1 2.4 1.1 1.62 0 2.38-1.1 0.76-1.12 0.76-3.02t-0.76-2.98-2.4-1.08-2.38 1.08-0.74 2.98z"/>
   <path d="m90.78 124.12q0 2.66-1.36 4.12-1.34 1.46-3.64 1.46-1.42 0-2.54-0.64-1.1-0.66-1.74-1.9-0.64-1.26-0.64-3.04 0-2.66 1.34-4.1t3.64-1.44q1.46 0 2.56 0.66 1.12 0.64 1.74 1.88 0.64 1.22 0.64 3zm-8.1 0q0 1.9 0.74 3.02 0.76 1.1 2.4 1.1 1.62 0 2.38-1.1 0.76-1.12 0.76-3.02t-0.76-2.98-2.4-1.08-2.38 1.08-0.74 2.98z"/>
   <path d="m95.32 129.5h-1.76v-15.2h1.76z"/>
   <path d="m100.48 118q0 0.68-0.04 1.28-0.02 0.58-0.06 0.92h0.1q0.46-0.68 1.26-1.14t2.06-0.46q2 0 3.2 1.4 1.22 1.38 1.22 4.14t-1.22 4.16-3.2 1.4q-1.26 0-2.06-0.46t-1.26-1.1h-0.14l-0.36 1.36h-1.26v-15.2h1.76zm3.02 2.06q-1.7 0-2.36 0.98t-0.66 3.04v0.08q0 1.98 0.64 3.04 0.66 1.04 2.42 1.04 1.44 0 2.14-1.06 0.72-1.06 0.72-3.06 0-4.06-2.9-4.06z"/>
   <path d="m120.34 124.12q0 2.66-1.36 4.12-1.34 1.46-3.64 1.46-1.42 0-2.54-0.64-1.1-0.66-1.74-1.9-0.64-1.26-0.64-3.04 0-2.66 1.34-4.1t3.64-1.44q1.46 0 2.56 0.66 1.12 0.64 1.74 1.88 0.64 1.22 0.64 3zm-8.1 0q0 1.9 0.74 3.02 0.76 1.1 2.4 1.1 1.62 0 2.38-1.1 0.76-1.12 0.76-3.02t-0.76-2.98-2.4-1.08-2.38 1.08-0.74 2.98z"/>
   <path d="m125.26 124.02-3.7-5.24h2l2.76 4.04 2.74-4.04h1.98l-3.7 5.24 3.9 5.48h-2l-2.92-4.28-2.96 4.28h-1.98z"/>
  </g>
  <g fill="url(#d)">
   <path d="m65.72 128.26q0.4 0 0.82-0.06 0.42-0.08 0.68-0.16v1.34q-0.28 0.14-0.8 0.22-0.52 0.1-1 0.1-0.84 0-1.56-0.28-0.7-0.3-1.14-1.02t-0.44-2.02v-6.24h-1.52v-0.84l1.54-0.7 0.7-2.28h1.04v2.46h3.1v1.36h-3.1v6.2q0 0.98 0.46 1.46 0.48 0.46 1.22 0.46z"/>
   <path d="m78.68 124.12q0 2.66-1.36 4.12-1.34 1.46-3.64 1.46-1.42 0-2.54-0.64-1.1-0.66-1.74-1.9-0.64-1.26-0.64-3.04 0-2.66 1.34-4.1t3.64-1.44q1.46 0 2.56 0.66 1.12 0.64 1.74 1.88 0.64 1.22 0.64 3zm-8.1 0q0 1.9 0.74 3.02 0.76 1.1 2.4 1.1 1.62 0 2.38-1.1 0.76-1.12 0.76-3.02t-0.76-2.98-2.4-1.08-2.38 1.08-0.74 2.98z"/>
   <path d="m90.78 124.12q0 2.66-1.36 4.12-1.34 1.46-3.64 1.46-1.42 0-2.54-0.64-1.1-0.66-1.74-1.9-0.64-1.26-0.64-3.04 0-2.66 1.34-4.1t3.64-1.44q1.46 0 2.56 0.66 1.12 0.64 1.74 1.88 0.64 1.22 0.64 3zm-8.1 0q0 1.9 0.74 3.02 0.76 1.1 2.4 1.1 1.62 0 2.38-1.1 0.76-1.12 0.76-3.02t-0.76-2.98-2.4-1.08-2.38 1.08-0.74 2.98z"/>
   <path d="m95.32 129.5h-1.76v-15.2h1.76z"/>
   <path d="m100.48 118q0 0.68-0.04 1.28-0.02 0.58-0.06 0.92h0.1q0.46-0.68 1.26-1.14t2.06-0.46q2 0 3.2 1.4 1.22 1.38 1.22 4.14t-1.22 4.16-3.2 1.4q-1.26 0-2.06-0.46t-1.26-1.1h-0.14l-0.36 1.36h-1.26v-15.2h1.76zm3.02 2.06q-1.7 0-2.36 0.98t-0.66 3.04v0.08q0 1.98 0.64 3.04 0.66 1.04 2.42 1.04 1.44 0 2.14-1.06 0.72-1.06 0.72-3.06 0-4.06-2.9-4.06z"/>
   <path d="m120.34 124.12q0 2.66-1.36 4.12-1.34 1.46-3.64 1.46-1.42 0-2.54-0.64-1.1-0.66-1.74-1.9-0.64-1.26-0.64-3.04 0-2.66 1.34-4.1t3.64-1.44q1.46 0 2.56 0.66 1.12 0.64 1.74 1.88 0.64 1.22 0.64 3zm-8.1 0q0 1.9 0.74 3.02 0.76 1.1 2.4 1.1 1.62 0 2.38-1.1 0.76-1.12 0.76-3.02t-0.76-2.98-2.4-1.08-2.38 1.08-0.74 2.98z"/>
   <path d="m125.26 124.02-3.7-5.24h2l2.76 4.04 2.74-4.04h1.98l-3.7 5.24 3.9 5.48h-2l-2.92-4.28-2.96 4.28h-1.98z"/>
  </g>
 </g>
</svg>
