<?xml version="1.0" encoding="UTF-8" standalone="no"?>
<svg
   xmlns:dc="http://purl.org/dc/elements/1.1/"
   xmlns:cc="http://creativecommons.org/ns#"
   xmlns:rdf="http://www.w3.org/1999/02/22-rdf-syntax-ns#"
   xmlns:svg="http://www.w3.org/2000/svg"
   xmlns="http://www.w3.org/2000/svg"
   xmlns:xlink="http://www.w3.org/1999/xlink"
   xmlns:sodipodi="http://sodipodi.sourceforge.net/DTD/sodipodi-0.dtd"
   xmlns:inkscape="http://www.inkscape.org/namespaces/inkscape"
   width="192"
   height="192"
   viewBox="0 0 192 192"
   version="1.1"
   id="svg8"
   inkscape:version="1.0.2 (e86c870879, 2021-01-15, custom)"
   sodipodi:docname="shamrock-toolbox.svg">
  <defs
     id="defs2">
    <linearGradient
       inkscape:collect="always"
       id="linearGradient1872">
      <stop
         style="stop-color:#ffffff;stop-opacity:0.81176472"
         offset="0"
         id="stop1868" />
      <stop
         style="stop-color:#000000;stop-opacity:0;"
         offset="1"
         id="stop1870" />
    </linearGradient>
    <linearGradient
       inkscape:collect="always"
       id="linearGradient1446">
      <stop
         style="stop-color:#000000;stop-opacity:1"
         offset="0"
         id="stop1442" />
      <stop
         style="stop-color:#000000;stop-opacity:1"
         offset="0.37499979"
         id="stop1450" />
      <stop
         style="stop-color:#000000;stop-opacity:0"
         offset="1"
         id="stop1444" />
    </linearGradient>
    <linearGradient
       inkscape:collect="always"
       id="linearGradient1428">
      <stop
         style="stop-color:#fffff0;stop-opacity:1"
         offset="0"
         id="stop1424" />
      <stop
         style="stop-color:#b3b3b3;stop-opacity:0"
         offset="1"
         id="stop1426" />
    </linearGradient>
    <linearGradient
       inkscape:collect="always"
       id="linearGradient1410">
      <stop
         style="stop-color:#000000;stop-opacity:1"
         offset="0"
         id="stop1406" />
      <stop
         style="stop-color:#000000;stop-opacity:0"
         offset="1"
         id="stop1408" />
    </linearGradient>
    <linearGradient
       inkscape:collect="always"
       id="linearGradient1398">
      <stop
         style="stop-color:#ffffff;stop-opacity:0.73333335"
         offset="0"
         id="stop1394" />
      <stop
         style="stop-color:#666666;stop-opacity:0;"
         offset="1"
         id="stop1396" />
    </linearGradient>
    <linearGradient
       inkscape:collect="always"
       id="linearGradient1384">
      <stop
         style="stop-color:#ffffff;stop-opacity:0.75294119"
         offset="0"
         id="stop1380" />
      <stop
         style="stop-color:#000000;stop-opacity:0"
         offset="1"
         id="stop1382" />
    </linearGradient>
    <linearGradient
       inkscape:collect="always"
       id="linearGradient1341">
      <stop
         style="stop-color:#000000;stop-opacity:1"
         offset="0"
         id="stop1337" />
      <stop
         style="stop-color:#b3b3b3;stop-opacity:1"
         offset="1"
         id="stop1339" />
    </linearGradient>
    <linearGradient
       inkscape:collect="always"
       id="linearGradient1309">
      <stop
         style="stop-color:#000000;stop-opacity:1"
         offset="0"
         id="stop1305" />
      <stop
         style="stop-color:#000000;stop-opacity:0"
         offset="1"
         id="stop1307" />
    </linearGradient>
    <linearGradient
       inkscape:collect="always"
       xlink:href="#linearGradient1309"
       id="linearGradient1313"
       x1="96"
       y1="96"
       x2="96"
       y2="70"
       gradientUnits="userSpaceOnUse"
       gradientTransform="matrix(1,0,0,0.30769231,0,66.461538)" />
    <filter
       style="color-interpolation-filters:sRGB;"
       inkscape:label="Blur"
       id="filter1329">
      <feGaussianBlur
         stdDeviation="10 10"
         result="fbSourceGraphic"
         id="feGaussianBlur1327" />
      <feColorMatrix
         result="fbSourceGraphicAlpha"
         in="fbSourceGraphic"
         values="0 0 0 -1 0 0 0 0 -1 0 0 0 0 -1 0 0 0 0 1 0"
         id="feColorMatrix1331" />
      <feGaussianBlur
         id="feGaussianBlur1333"
         stdDeviation="10 10"
         result="blur"
         in="fbSourceGraphic" />
    </filter>
    <linearGradient
       inkscape:collect="always"
       xlink:href="#linearGradient1341"
       id="linearGradient1343"
       x1="96"
       y1="148"
       x2="96"
       y2="132"
       gradientUnits="userSpaceOnUse" />
    <filter
       style="color-interpolation-filters:sRGB;"
       inkscape:label="Blur"
       id="filter1357">
      <feGaussianBlur
         stdDeviation="10 10"
         result="fbSourceGraphic"
         id="feGaussianBlur1355" />
      <feColorMatrix
         result="fbSourceGraphicAlpha"
         in="fbSourceGraphic"
         values="0 0 0 -1 0 0 0 0 -1 0 0 0 0 -1 0 0 0 0 1 0"
         id="feColorMatrix1359" />
      <feGaussianBlur
         id="feGaussianBlur1361"
         stdDeviation="10 10"
         result="blur"
         in="fbSourceGraphic" />
    </filter>
    <linearGradient
       inkscape:collect="always"
       xlink:href="#linearGradient1384"
       id="linearGradient1386"
       x1="80"
       y1="80"
       x2="100"
       y2="104"
       gradientUnits="userSpaceOnUse" />
    <linearGradient
       inkscape:collect="always"
       xlink:href="#linearGradient1398"
       id="linearGradient1400"
       x1="36"
       y1="44"
       x2="96"
       y2="96"
       gradientUnits="userSpaceOnUse" />
    <linearGradient
       inkscape:collect="always"
       xlink:href="#linearGradient1410"
       id="linearGradient1404"
       gradientUnits="userSpaceOnUse"
       x1="116"
       y1="104"
       x2="96"
       y2="92" />
    <linearGradient
       inkscape:collect="always"
       xlink:href="#linearGradient1428"
       id="linearGradient1422"
       gradientUnits="userSpaceOnUse"
       x1="36"
       y1="96"
       x2="96"
       y2="148" />
    <radialGradient
       inkscape:collect="always"
       xlink:href="#linearGradient1446"
       id="radialGradient1448"
       cx="96"
       cy="96"
       fx="96"
       fy="96"
       r="28"
       gradientUnits="userSpaceOnUse"
       gradientTransform="matrix(1.1428572,6.9928744e-7,-1.4230743e-7,1.1428569,-13.714284,-13.714339)" />
    <linearGradient
       inkscape:collect="always"
       xlink:href="#linearGradient1872"
       id="linearGradient1890"
       gradientUnits="userSpaceOnUse"
       x1="76"
       y1="72"
       x2="128"
       y2="124" />
    <radialGradient
       inkscape:collect="always"
       xlink:href="#linearGradient1446"
       id="radialGradient3243"
       gradientUnits="userSpaceOnUse"
       gradientTransform="matrix(1.1428572,6.9928744e-7,-1.4230743e-7,1.1428569,-9.714284,-5.714339)"
       cx="96"
       cy="96"
       fx="96"
       fy="96"
       r="28" />
    <linearGradient
       inkscape:collect="always"
       xlink:href="#linearGradient1309"
       id="linearGradient4606"
       gradientUnits="userSpaceOnUse"
       gradientTransform="matrix(1,0,0,0.30769231,0,66.461538)"
       x1="96"
       y1="96"
       x2="96"
       y2="70" />
  </defs>
  <sodipodi:namedview
     id="base"
     pagecolor="#ffffff"
     bordercolor="#666666"
     borderopacity="1.0"
     inkscape:pageopacity="0.0"
     inkscape:pageshadow="2"
     inkscape:zoom="2.8489583"
     inkscape:cx="96"
     inkscape:cy="96"
     inkscape:document-units="px"
     inkscape:current-layer="layer1"
     inkscape:document-rotation="0"
     showgrid="true"
     units="px"
     scale-x="1"
     inkscape:snap-bbox="true"
     inkscape:bbox-paths="true"
     inkscape:bbox-nodes="true"
     inkscape:snap-bbox-edge-midpoints="true"
     inkscape:snap-bbox-midpoints="true"
     inkscape:object-paths="true"
     inkscape:snap-intersection-paths="true"
     inkscape:snap-smooth-nodes="true"
     inkscape:snap-midpoints="true"
     inkscape:snap-object-midpoints="true"
     inkscape:snap-page="true"
     inkscape:snap-center="true"
     inkscape:snap-text-baseline="true"
     inkscape:window-width="1362"
     inkscape:window-height="748"
     inkscape:window-x="0"
     inkscape:window-y="0"
     inkscape:window-maximized="0"
     inkscape:snap-grids="true"
     inkscape:snap-others="true"
     inkscape:snap-nodes="true"
     inkscape:snap-global="true">
    <inkscape:grid
       type="xygrid"
       id="grid10"
       empspacing="4" />
    <sodipodi:guide
       position="0,192"
       orientation="96,0"
       id="guide1122" />
    <sodipodi:guide
       position="120,96"
       orientation="0,96"
       id="guide1124" />
    <sodipodi:guide
       position="96,96"
       orientation="-96,0"
       id="guide1126" />
    <sodipodi:guide
       position="96,192"
       orientation="0,-96"
       id="guide1128" />
  </sodipodi:namedview>
  <metadata
     id="metadata5">
    <rdf:RDF>
      <cc:Work
         rdf:about="">
        <dc:format>image/svg+xml</dc:format>
        <dc:type
           rdf:resource="http://purl.org/dc/dcmitype/StillImage" />
        <dc:title></dc:title>
      </cc:Work>
    </rdf:RDF>
  </metadata>
  <g
     inkscape:label="Layer 1"
     inkscape:groupmode="layer"
     id="layer1">
    <path
       id="path1290"
       style="fill:#666666;fill-opacity:1"
       d="M 156,96 V 56 c 0,-6.648 -5.352,-12 -12,-12 H 48 c -6.648,0 -12,5.352 -12,12 v 40 z"
       sodipodi:nodetypes="csssscc" />
    <path
       id="path1303"
       style="fill:url(#linearGradient4606);fill-opacity:1;stroke-width:0.5547"
       d="M 156,96 V 83.692308 C 156,81.646769 150.648,80 144,80 H 48 c -6.648,0 -12,1.646769 -12,3.692308 V 96 Z"
       sodipodi:nodetypes="csssscc" />
    <circle
       style="fill:url(#radialGradient3243);fill-opacity:1;stroke-width:1"
       id="path1432"
       cx="100"
       cy="104"
       r="32" />
    <path
       id="path1392"
       style="fill:url(#linearGradient1400);fill-opacity:1"
       d="M 156,96 V 56 c 0,-6.648 -5.352,-12 -12,-12 H 48 c -6.648,0 -12,5.352 -12,12 v 40 z"
       sodipodi:nodetypes="csssscc" />
    <path
       id="rect1159"
       style="fill:#db123c;fill-opacity:1;stroke-width:0.816496"
       d="m 100.66765,69.344526 c -1.438344,-0.337164 -2.866942,0.548856 -3.204106,1.987206 l -1.080498,4.609427 c -2.855405,-0.08569 -5.629449,0.462507 -8.178391,1.51327 l -2.598089,-4.183833 c -0.735316,-1.245324 -2.389455,-1.63305 -3.601591,-0.844252 l -2.280386,1.401307 c -1.270559,0.775102 -1.654485,2.412932 -0.860746,3.671949 l 2.729559,4.393192 c -1.840338,1.858516 -3.348247,4.079022 -4.357848,6.609556 L 71.823661,87.23374 c -1.438345,-0.337164 -2.866944,0.548856 -3.204106,1.987206 l -0.608896,2.597557 c -0.337164,1.438343 0.548856,2.866942 1.987206,3.204106 l 5.83024,1.366673 c 0.05504,2.487468 0.570196,4.899168 1.490816,7.135988 l -5.380081,3.33676 c -1.255483,0.77865 -1.6394,2.41649 -0.860747,3.67195 l 1.406329,2.26752 c 0.778654,1.25547 2.416468,1.63941 3.67195,0.86075 l 5.6289,-3.49108 c 1.621742,1.60041 3.512258,2.95225 5.651552,3.93469 l -1.130873,4.8243 c -0.309066,1.31848 0.504214,2.62979 1.822698,2.93885 l 3.027315,0.70964 c 1.318483,0.30907 2.629797,-0.50418 2.938857,-1.82269 l 1.13087,-4.82431 c 2.353035,0.0706 4.647377,-0.30025 6.811399,-1.01323 l 3.49107,5.6289 c 0.77865,1.25548 2.41648,1.63939 3.67195,0.86074 l 2.26752,-1.40632 c 1.25548,-0.77864 1.63941,-2.41648 0.86075,-3.67196 l -3.33676,-5.38008 c 1.81877,-1.59468 3.35203,-3.52621 4.50677,-5.73009 l 5.83023,1.36667 c 1.43836,0.33716 2.86696,-0.54886 3.20411,-1.9872 l 0.60891,-2.59756 c 0.33715,-1.43834 -0.54886,-2.866942 -1.98722,-3.204105 l -5.41189,-1.268604 c 0.21804,-2.689502 -0.13758,-5.323595 -0.94324,-7.785995 l 4.47311,-2.771007 c 1.21214,-0.788814 1.59607,-2.426643 0.86074,-3.671948 l -1.42009,-2.268739 c -0.83268,-1.268128 -2.39095,-1.633426 -3.70047,-0.867431 l -4.18674,2.593395 c -1.81645,-2.074059 -4.0579,-3.797944 -6.65393,-4.99013 l 1.08051,-4.609429 c 0.33717,-1.438345 -0.54886,-2.866943 -1.98721,-3.204105 z m -5.222017,10.595653 -0.953907,4.06938 a 12,12 0 0 0 -1.976485,0.387258 l -2.172985,-3.498408 a 16,16 0 0 1 5.103377,-0.95823 z m 7.788867,1.825797 a 16,16 0 0 1 4.14401,3.125918 l -3.49898,2.166836 a 12,12 0 0 0 -1.59849,-1.225277 z m -19.4671,3.629479 2.24141,3.608738 A 12,12 0 0 0 85.17845,90.36425 L 81.187036,89.428619 A 16,16 0 0 1 83.7674,85.395455 Z m 27.52352,6.520022 a 16,16 0 0 1 0.50013,4.687061 l -3.98951,-0.935187 a 12,12 0 0 0 -0.12931,-1.510791 z m -31.423861,5.42058 4.175868,0.978869 a 12,12 0 0 0 0.219394,0.90401 l -3.499871,2.170644 a 16,16 0 0 1 -0.895389,-4.053524 z m 25.416511,5.957903 4.17777,0.97932 a 16,16 0 0 1 -2.60732,3.23245 l -2.16918,-3.49753 a 12,12 0 0 0 0.59873,-0.71424 z m -16.378399,2.45979 a 12,12 0 0 0 0.422529,0.2856 l -0.953463,4.06748 a 16,16 0 0 1 -3.083956,-2.11112 z m 8.718295,2.04567 2.240523,3.61253 a 16,16 0 0 1 -3.700882,0.52068 l 0.953906,-4.06938 a 12,12 0 0 0 0.506463,-0.0638 z" />
    <path
       id="path1402"
       style="fill:url(#linearGradient1404);fill-opacity:1;stroke-width:0.816496"
       d="m 100.13086,69.273438 c -1.241631,-0.03662 -2.372951,0.800037 -2.667969,2.058593 l -1.080079,4.609375 c -2.855405,-0.08569 -5.628792,0.462909 -8.177734,1.513672 L 85.607422,73.271484 C 84.872106,72.02616 83.217995,71.636983 82.005859,72.425781 l -2.28125,1.402344 C 78.45405,74.603227 78.069542,76.240983 78.863281,77.5 l 2.730469,4.392578 c -1.840338,1.858516 -3.347821,4.078841 -4.357422,6.609375 l -5.412109,-1.267578 c -1.438345,-0.337164 -2.867916,0.547978 -3.205078,1.986328 l -0.609375,2.597656 c -0.337164,1.438343 0.549931,2.867914 1.988281,3.205079 L 74.167969,96 H 109.2207 l -1.41992,-0.332031 a 12,12 0 0 0 -0.1289,-1.511719 l 3.61914,-2.240234 A 16,16 0 0 1 111.80469,96 h 3.99414 c 0.003,-2.156843 -0.34776,-4.264326 -1,-6.257812 l 4.47265,-2.769532 c 1.21214,-0.788814 1.59666,-2.42657 0.86133,-3.671875 l -1.41992,-2.269531 c -0.83268,-1.268128 -2.39165,-1.633182 -3.70117,-0.867188 l -4.18555,2.59375 c -1.81645,-2.074059 -4.05826,-3.798048 -6.65429,-4.990234 l 1.08007,-4.609375 c 0.33717,-1.438345 -0.54797,-2.867916 -1.98633,-3.205078 l -2.59765,-0.609375 c -0.17979,-0.04215 -0.35973,-0.06508 -0.53711,-0.07031 z m -4.685548,10.666015 -0.953124,4.070313 a 12,12 0 0 0 -1.976563,0.386718 l -2.173828,-3.498046 a 16,16 0 0 1 5.103515,-0.958985 z m 7.789068,1.826172 a 16,16 0 0 1 4.14453,3.126953 l -3.5,2.166016 a 12,12 0 0 0 -1.59766,-1.22461 z m -19.466802,3.628906 2.242188,3.609375 a 12,12 0 0 0 -0.832032,1.359375 L 81.1875,89.427734 a 16,16 0 0 1 2.580078,-4.033203 z" />
    <path
       id="path1375"
       style="fill:url(#linearGradient1386);fill-opacity:1;stroke-width:0.816496"
       d="m 100.13086,69.273438 c -1.241631,-0.03662 -2.372951,0.800037 -2.667969,2.058593 l -1.080079,4.609375 c -2.855405,-0.08569 -5.628792,0.462909 -8.177734,1.513672 L 85.607422,73.271484 C 84.872106,72.02616 83.217995,71.636983 82.005859,72.425781 l -2.28125,1.402344 C 78.45405,74.603227 78.069542,76.240983 78.863281,77.5 l 2.730469,4.392578 c -1.840338,1.858516 -3.347821,4.078841 -4.357422,6.609375 l -5.412109,-1.267578 c -1.438345,-0.337164 -2.867916,0.547978 -3.205078,1.986328 l -0.609375,2.597656 c -0.337164,1.438343 0.549931,2.867914 1.988281,3.205079 L 74.167969,96 H 109.2207 l -1.41992,-0.332031 a 12,12 0 0 0 -0.1289,-1.511719 l 3.61914,-2.240234 A 16,16 0 0 1 111.80469,96 h 3.99414 c 0.003,-2.156843 -0.34776,-4.264326 -1,-6.257812 l 4.47265,-2.769532 c 1.21214,-0.788814 1.59666,-2.42657 0.86133,-3.671875 l -1.41992,-2.269531 c -0.83268,-1.268128 -2.39165,-1.633182 -3.70117,-0.867188 l -4.18555,2.59375 c -1.81645,-2.074059 -4.05826,-3.798048 -6.65429,-4.990234 l 1.08007,-4.609375 c 0.33717,-1.438345 -0.54797,-2.867916 -1.98633,-3.205078 l -2.59765,-0.609375 c -0.17979,-0.04215 -0.35973,-0.06508 -0.53711,-0.07031 z m -4.685548,10.666015 -0.953124,4.070313 a 12,12 0 0 0 -1.976563,0.386718 l -2.173828,-3.498046 a 16,16 0 0 1 5.103515,-0.958985 z m 7.789068,1.826172 a 16,16 0 0 1 4.14453,3.126953 l -3.5,2.166016 a 12,12 0 0 0 -1.59766,-1.22461 z m -19.466802,3.628906 2.242188,3.609375 a 12,12 0 0 0 -0.832032,1.359375 L 81.1875,89.427734 a 16,16 0 0 1 2.580078,-4.033203 z" />
    <path
       id="path1335"
       style="fill:url(#linearGradient1343);fill-opacity:1"
       d="m 156,96 v 40 c 0,6.648 -5.352,12 -12,12 H 48 c -6.648,0 -12,-5.352 -12,-12 V 96 Z"
       sodipodi:nodetypes="csssscc" />
    <path
       id="path1418"
       style="fill:url(#linearGradient1422);fill-opacity:1"
       d="m 156,96 v 40 c 0,6.648 -5.352,12 -12,12 H 48 c -6.648,0 -12,-5.352 -12,-12 V 96 Z"
       sodipodi:nodetypes="csssscc" />
    <g
       aria-label="toolbox"
       id="text1772"
       style="font-style:normal;font-weight:normal;font-size:20px;line-height:1.25;font-family:sans-serif;fill:#000000;fill-opacity:1;stroke:none">
      <path
         d="m 65.720044,128.26 q 0.4,0 0.82,-0.06 0.42,-0.08 0.68,-0.16 v 1.34 q -0.28,0.14 -0.8,0.22 -0.52,0.1 -1,0.1 -0.84,0 -1.56,-0.28 -0.7,-0.3 -1.14,-1.02 -0.44,-0.72 -0.44,-2.02 v -6.24 h -1.52 v -0.84 l 1.54,-0.7 0.7,-2.28 h 1.04 v 2.46 h 3.1 v 1.36 h -3.1 v 6.2 q 0,0.98 0.46,1.46 0.48,0.46 1.22,0.46 z"
         style="font-style:normal;font-variant:normal;font-weight:normal;font-stretch:normal;font-size:20px;font-family:sans-serif;-inkscape-font-specification:sans-serif;fill:#000000;fill-opacity:1"
         id="path1829" />
      <path
         d="m 78.680007,124.12 q 0,2.66 -1.36,4.12 -1.34,1.46 -3.64,1.46 -1.42,0 -2.54,-0.64 -1.1,-0.66 -1.74,-1.9 -0.64,-1.26 -0.64,-3.04 0,-2.66 1.34,-4.1 1.34,-1.44 3.64,-1.44 1.46,0 2.56,0.66 1.12,0.64 1.74,1.88 0.64,1.22 0.64,3 z m -8.1,0 q 0,1.9 0.74,3.02 0.76,1.1 2.4,1.1 1.62,0 2.38,-1.1 0.76,-1.12 0.76,-3.02 0,-1.9 -0.76,-2.98 -0.76,-1.08 -2.4,-1.08 -1.64,0 -2.38,1.08 -0.74,1.08 -0.74,2.98 z"
         style="font-style:normal;font-variant:normal;font-weight:normal;font-stretch:normal;font-size:20px;font-family:sans-serif;-inkscape-font-specification:sans-serif;fill:#000000;fill-opacity:1"
         id="path1831" />
      <path
         d="m 90.779998,124.12 q 0,2.66 -1.36,4.12 -1.34,1.46 -3.64,1.46 -1.42,0 -2.54,-0.64 -1.1,-0.66 -1.74,-1.9 -0.64,-1.26 -0.64,-3.04 0,-2.66 1.34,-4.1 1.34,-1.44 3.64,-1.44 1.46,0 2.56,0.66 1.12,0.64 1.74,1.88 0.64,1.22 0.64,3 z m -8.1,0 q 0,1.9 0.74,3.02 0.76,1.1 2.4,1.1 1.62,0 2.38,-1.1 0.76,-1.12 0.76,-3.02 0,-1.9 -0.76,-2.98 -0.76,-1.08 -2.4,-1.08 -1.64,0 -2.38,1.08 -0.74,1.08 -0.74,2.98 z"
         style="font-style:normal;font-variant:normal;font-weight:normal;font-stretch:normal;font-size:20px;font-family:sans-serif;-inkscape-font-specification:sans-serif;fill:#000000;fill-opacity:1"
         id="path1833" />
      <path
         d="m 95.319989,129.5 h -1.76 v -15.2 h 1.76 z"
         style="font-style:normal;font-variant:normal;font-weight:normal;font-stretch:normal;font-size:20px;font-family:sans-serif;-inkscape-font-specification:sans-serif;fill:#000000;fill-opacity:1"
         id="path1835" />
      <path
         d="m 100.47998,118 q 0,0.68 -0.04,1.28 -0.02,0.58 -0.06,0.92 h 0.1 q 0.46,-0.68 1.26,-1.14 0.8,-0.46 2.06,-0.46 2,0 3.2,1.4 1.22,1.38 1.22,4.14 0,2.76 -1.22,4.16 -1.22,1.4 -3.2,1.4 -1.26,0 -2.06,-0.46 -0.8,-0.46 -1.26,-1.1 h -0.14 l -0.360002,1.36 h -1.26 v -15.2 h 1.760002 z m 3.02,2.06 q -1.7,0 -2.36,0.98 -0.66,0.98 -0.66,3.04 v 0.08 q 0,1.98 0.64,3.04 0.66,1.04 2.42,1.04 1.44,0 2.14,-1.06 0.72,-1.06 0.72,-3.06 0,-4.06 -2.9,-4.06 z"
         style="font-style:normal;font-variant:normal;font-weight:normal;font-stretch:normal;font-size:20px;font-family:sans-serif;-inkscape-font-specification:sans-serif;fill:#000000;fill-opacity:1"
         id="path1837" />
      <path
         d="m 120.33997,124.12 q 0,2.66 -1.36,4.12 -1.34,1.46 -3.64,1.46 -1.42,0 -2.54,-0.64 -1.1,-0.66 -1.74,-1.9 -0.64,-1.26 -0.64,-3.04 0,-2.66 1.34,-4.1 1.34,-1.44 3.64,-1.44 1.46,0 2.56,0.66 1.12,0.64 1.74,1.88 0.64,1.22 0.64,3 z m -8.1,0 q 0,1.9 0.74,3.02 0.76,1.1 2.4,1.1 1.62,0 2.38,-1.1 0.76,-1.12 0.76,-3.02 0,-1.9 -0.76,-2.98 -0.76,-1.08 -2.4,-1.08 -1.64,0 -2.38,1.08 -0.74,1.08 -0.74,2.98 z"
         style="font-style:normal;font-variant:normal;font-weight:normal;font-stretch:normal;font-size:20px;font-family:sans-serif;-inkscape-font-specification:sans-serif;fill:#000000;fill-opacity:1"
         id="path1839" />
      <path
         d="m 125.25995,124.02 -3.7,-5.24 h 2 l 2.76,4.04 2.74,-4.04 h 1.98 l -3.7,5.24 3.9,5.48 h -2 l -2.92,-4.28 -2.96,4.28 h -1.98 z"
         style="font-style:normal;font-variant:normal;font-weight:normal;font-stretch:normal;font-size:20px;font-family:sans-serif;-inkscape-font-specification:sans-serif;fill:#000000;fill-opacity:1"
         id="path1841" />
    </g>
    <g
       aria-label="toolbox"
       id="g1866"
       style="font-style:normal;font-weight:normal;font-size:20px;line-height:1.25;font-family:sans-serif;fill:url(#linearGradient1890);fill-opacity:1;stroke:none">
      <path
         d="m 65.720044,128.26 q 0.4,0 0.82,-0.06 0.42,-0.08 0.68,-0.16 v 1.34 q -0.28,0.14 -0.8,0.22 -0.52,0.1 -1,0.1 -0.84,0 -1.56,-0.28 -0.7,-0.3 -1.14,-1.02 -0.44,-0.72 -0.44,-2.02 v -6.24 h -1.52 v -0.84 l 1.54,-0.7 0.7,-2.28 h 1.04 v 2.46 h 3.1 v 1.36 h -3.1 v 6.2 q 0,0.98 0.46,1.46 0.48,0.46 1.22,0.46 z"
         style="font-style:normal;font-variant:normal;font-weight:normal;font-stretch:normal;font-size:20px;font-family:sans-serif;-inkscape-font-specification:sans-serif;fill:url(#linearGradient1890);fill-opacity:1"
         id="path1852" />
      <path
         d="m 78.680007,124.12 q 0,2.66 -1.36,4.12 -1.34,1.46 -3.64,1.46 -1.42,0 -2.54,-0.64 -1.1,-0.66 -1.74,-1.9 -0.64,-1.26 -0.64,-3.04 0,-2.66 1.34,-4.1 1.34,-1.44 3.64,-1.44 1.46,0 2.56,0.66 1.12,0.64 1.74,1.88 0.64,1.22 0.64,3 z m -8.1,0 q 0,1.9 0.74,3.02 0.76,1.1 2.4,1.1 1.62,0 2.38,-1.1 0.76,-1.12 0.76,-3.02 0,-1.9 -0.76,-2.98 -0.76,-1.08 -2.4,-1.08 -1.64,0 -2.38,1.08 -0.74,1.08 -0.74,2.98 z"
         style="font-style:normal;font-variant:normal;font-weight:normal;font-stretch:normal;font-size:20px;font-family:sans-serif;-inkscape-font-specification:sans-serif;fill:url(#linearGradient1890);fill-opacity:1"
         id="path1854" />
      <path
         d="m 90.779998,124.12 q 0,2.66 -1.36,4.12 -1.34,1.46 -3.64,1.46 -1.42,0 -2.54,-0.64 -1.1,-0.66 -1.74,-1.9 -0.64,-1.26 -0.64,-3.04 0,-2.66 1.34,-4.1 1.34,-1.44 3.64,-1.44 1.46,0 2.56,0.66 1.12,0.64 1.74,1.88 0.64,1.22 0.64,3 z m -8.1,0 q 0,1.9 0.74,3.02 0.76,1.1 2.4,1.1 1.62,0 2.38,-1.1 0.76,-1.12 0.76,-3.02 0,-1.9 -0.76,-2.98 -0.76,-1.08 -2.4,-1.08 -1.64,0 -2.38,1.08 -0.74,1.08 -0.74,2.98 z"
         style="font-style:normal;font-variant:normal;font-weight:normal;font-stretch:normal;font-size:20px;font-family:sans-serif;-inkscape-font-specification:sans-serif;fill:url(#linearGradient1890);fill-opacity:1"
         id="path1856" />
      <path
         d="m 95.319989,129.5 h -1.76 v -15.2 h 1.76 z"
         style="font-style:normal;font-variant:normal;font-weight:normal;font-stretch:normal;font-size:20px;font-family:sans-serif;-inkscape-font-specification:sans-serif;fill:url(#linearGradient1890);fill-opacity:1"
         id="path1858" />
      <path
         d="m 100.47998,118 q 0,0.68 -0.04,1.28 -0.02,0.58 -0.06,0.92 h 0.1 q 0.46,-0.68 1.26,-1.14 0.8,-0.46 2.06,-0.46 2,0 3.2,1.4 1.22,1.38 1.22,4.14 0,2.76 -1.22,4.16 -1.22,1.4 -3.2,1.4 -1.26,0 -2.06,-0.46 -0.8,-0.46 -1.26,-1.1 h -0.14 l -0.360002,1.36 h -1.26 v -15.2 h 1.760002 z m 3.02,2.06 q -1.7,0 -2.36,0.98 -0.66,0.98 -0.66,3.04 v 0.08 q 0,1.98 0.64,3.04 0.66,1.04 2.42,1.04 1.44,0 2.14,-1.06 0.72,-1.06 0.72,-3.06 0,-4.06 -2.9,-4.06 z"
         style="font-style:normal;font-variant:normal;font-weight:normal;font-stretch:normal;font-size:20px;font-family:sans-serif;-inkscape-font-specification:sans-serif;fill:url(#linearGradient1890);fill-opacity:1"
         id="path1860" />
      <path
         d="m 120.33997,124.12 q 0,2.66 -1.36,4.12 -1.34,1.46 -3.64,1.46 -1.42,0 -2.54,-0.64 -1.1,-0.66 -1.74,-1.9 -0.64,-1.26 -0.64,-3.04 0,-2.66 1.34,-4.1 1.34,-1.44 3.64,-1.44 1.46,0 2.56,0.66 1.12,0.64 1.74,1.88 0.64,1.22 0.64,3 z m -8.1,0 q 0,1.9 0.74,3.02 0.76,1.1 2.4,1.1 1.62,0 2.38,-1.1 0.76,-1.12 0.76,-3.02 0,-1.9 -0.76,-2.98 -0.76,-1.08 -2.4,-1.08 -1.64,0 -2.38,1.08 -0.74,1.08 -0.74,2.98 z"
         style="font-style:normal;font-variant:normal;font-weight:normal;font-stretch:normal;font-size:20px;font-family:sans-serif;-inkscape-font-specification:sans-serif;fill:url(#linearGradient1890);fill-opacity:1"
         id="path1862" />
      <path
         d="m 125.25995,124.02 -3.7,-5.24 h 2 l 2.76,4.04 2.74,-4.04 h 1.98 l -3.7,5.24 3.9,5.48 h -2 l -2.92,-4.28 -2.96,4.28 h -1.98 z"
         style="font-style:normal;font-variant:normal;font-weight:normal;font-stretch:normal;font-size:20px;font-family:sans-serif;-inkscape-font-specification:sans-serif;fill:url(#linearGradient1890);fill-opacity:1"
         id="path1864" />
    </g>
  </g>
</svg>
