<?xml version="1.0" encoding="UTF-8"?>
<svg width="192" height="192" version="1.1" viewBox="0 0 192 192" xmlns="http://www.w3.org/2000/svg" xmlns:cc="http://creativecommons.org/ns#" xmlns:dc="http://purl.org/dc/elements/1.1/" xmlns:rdf="http://www.w3.org/1999/02/22-rdf-syntax-ns#" xmlns:xlink="http://www.w3.org/1999/xlink">
 <defs>
  <linearGradient id="h" x1="96" x2="96" y1="148" y2="132" gradientUnits="userSpaceOnUse">
   <stop offset="0"/>
   <stop stop-color="#b3b3b3" offset="1"/>
  </linearGradient>
  <linearGradient id="g" x1="80" x2="100" y1="80" y2="104" gradientUnits="userSpaceOnUse">
   <stop stop-color="#fff" stop-opacity=".75294" offset="0"/>
   <stop stop-opacity="0" offset="1"/>
  </linearGradient>
  <linearGradient id="f" x1="36" x2="96" y1="44" y2="96" gradientUnits="userSpaceOnUse">
   <stop stop-color="#fff" stop-opacity=".73333" offset="0"/>
   <stop stop-color="#666" stop-opacity="0" offset="1"/>
  </linearGradient>
  <linearGradient id="e" x1="116" x2="96" y1="104" y2="92" gradientUnits="userSpaceOnUse">
   <stop offset="0"/>
   <stop stop-opacity="0" offset="1"/>
  </linearGradient>
  <linearGradient id="d" x1="36" x2="96" y1="96" y2="148" gradientUnits="userSpaceOnUse">
   <stop stop-color="#fffff0" offset="0"/>
   <stop stop-color="#b3b3b3" stop-opacity="0" offset="1"/>
  </linearGradient>
  <linearGradient id="c" x1="76" x2="128" y1="72" y2="124" gradientUnits="userSpaceOnUse">
   <stop stop-color="#fff" stop-opacity=".81176" offset="0"/>
   <stop stop-opacity="0" offset="1"/>
  </linearGradient>
  <radialGradient id="a" cx="96" cy="96" r="28" gradientTransform="matrix(1.1429 6.9929e-7 -1.4231e-7 1.1429 -9.7143 -5.7143)" gradientUnits="userSpaceOnUse">
   <stop offset="0"/>
   <stop offset=".375"/>
   <stop stop-opacity="0" offset="1"/>
  </radialGradient>
  <linearGradient id="b" x1="96" x2="96" y1="96" y2="70" gradientTransform="matrix(1 0 0 .30769 0 66.462)" gradientUnits="userSpaceOnUse">
   <stop offset="0"/>
   <stop stop-opacity="0" offset="1"/>
  </linearGradient>
 </defs>
 <metadata>
  <rdf:RDF>
   <cc:Work rdf:about="">
    <dc:format>image/svg+xml</dc:format>
    <dc:type rdf:resource="http://purl.org/dc/dcmitype/StillImage"/>
    <dc:title/>
   </cc:Work>
  </rdf:RDF>
 </metadata>
 <g>
  <path d="m156 96v-40c0-6.648-5.352-12-12-12h-96c-6.648 0-12 5.352-12 12v40z" fill="#666"/>
  <path d="m156 96v-12.308c0-2.0455-5.352-3.6923-12-3.6923h-96c-6.648 0-12 1.6468-12 3.6923v12.308z" fill="url(#b)" stroke-width=".5547"/>
  <circle cx="100" cy="104" r="32" fill="url(#a)"/>
  <path d="m156 96v-40c0-6.648-5.352-12-12-12h-96c-6.648 0-12 5.352-12 12v40z" fill="url(#f)"/>
  <g stroke-width=".8165">
   <path d="m100.67 69.345c-1.4383-0.33716-2.8669 0.54886-3.2041 1.9872l-1.0805 4.6094c-2.8554-0.08569-5.6294 0.46251-8.1784 1.5133l-2.5981-4.1838c-0.73532-1.2453-2.3895-1.633-3.6016-0.84425l-2.2804 1.4013c-1.2706 0.7751-1.6545 2.4129-0.86075 3.6719l2.7296 4.3932c-1.8403 1.8585-3.3482 4.079-4.3578 6.6096l-5.4119-1.2686c-1.4383-0.33716-2.8669 0.54886-3.2041 1.9872l-0.6089 2.5976c-0.33716 1.4383 0.54886 2.8669 1.9872 3.2041l5.8302 1.3667c0.05504 2.4875 0.5702 4.8992 1.4908 7.136l-5.3801 3.3368c-1.2555 0.77865-1.6394 2.4165-0.86075 3.672l1.4063 2.2675c0.77865 1.2555 2.4165 1.6394 3.672 0.86075l5.6289-3.4911c1.6217 1.6004 3.5123 2.9522 5.6516 3.9347l-1.1309 4.8243c-0.30907 1.3185 0.50421 2.6298 1.8227 2.9388l3.0273 0.70964c1.3185 0.30907 2.6298-0.50418 2.9389-1.8227l1.1309-4.8243c2.353 0.0706 4.6474-0.30025 6.8114-1.0132l3.4911 5.6289c0.77865 1.2555 2.4165 1.6394 3.672 0.86074l2.2675-1.4063c1.2555-0.77864 1.6394-2.4165 0.86075-3.672l-3.3368-5.3801c1.8188-1.5947 3.352-3.5262 4.5068-5.7301l5.8302 1.3667c1.4384 0.33716 2.867-0.54886 3.2041-1.9872l0.60891-2.5976c0.33715-1.4383-0.54886-2.8669-1.9872-3.2041l-5.4119-1.2686c0.21804-2.6895-0.13758-5.3236-0.94324-7.786l4.4731-2.771c1.2121-0.78881 1.5961-2.4266 0.86074-3.6719l-1.4201-2.2687c-0.83268-1.2681-2.391-1.6334-3.7005-0.86743l-4.1867 2.5934c-1.8164-2.0741-4.0579-3.7979-6.6539-4.9901l1.0805-4.6094c0.33717-1.4383-0.54886-2.8669-1.9872-3.2041zm-5.222 10.596-0.95391 4.0694a12 12 0 0 0-1.9765 0.38726l-2.173-3.4984a16 16 0 0 1 5.1034-0.95823zm7.7889 1.8258a16 16 0 0 1 4.144 3.1259l-3.499 2.1668a12 12 0 0 0-1.5985-1.2253zm-19.467 3.6295 2.2414 3.6087a12 12 0 0 0-0.83036 1.3601l-3.9914-0.93563a16 16 0 0 1 2.5804-4.0332zm27.524 6.52a16 16 0 0 1 0.50013 4.6871l-3.9895-0.93519a12 12 0 0 0-0.12931-1.5108zm-31.424 5.4206 4.1759 0.97887a12 12 0 0 0 0.21939 0.90401l-3.4999 2.1706a16 16 0 0 1-0.89539-4.0535zm25.417 5.9579 4.1778 0.97932a16 16 0 0 1-2.6073 3.2324l-2.1692-3.4975a12 12 0 0 0 0.59873-0.71424zm-16.378 2.4598a12 12 0 0 0 0.42253 0.2856l-0.95346 4.0675a16 16 0 0 1-3.084-2.1111zm8.7183 2.0457 2.2405 3.6125a16 16 0 0 1-3.7009 0.52068l0.95391-4.0694a12 12 0 0 0 0.50646-0.0638z" fill="#db123c"/>
   <path d="m100.13 69.273c-1.2416-0.03662-2.373 0.80004-2.668 2.0586l-1.0801 4.6094c-2.8554-0.08569-5.6288 0.46291-8.1777 1.5137l-2.5977-4.1836c-0.73532-1.2453-2.3894-1.6345-3.6016-0.8457l-2.2812 1.4023c-1.2706 0.7751-1.6551 2.4129-0.86133 3.6719l2.7305 4.3926c-1.8403 1.8585-3.3478 4.0788-4.3574 6.6094l-5.4121-1.2676c-1.4383-0.33716-2.8679 0.54798-3.2051 1.9863l-0.60938 2.5977c-0.33716 1.4383 0.54993 2.8679 1.9883 3.2051l4.1699 0.97656h35.053l-1.4199-0.33203a12 12 0 0 0-0.1289-1.5117l3.6191-2.2402a16 16 0 0 1 0.51367 4.084h3.9941c3e-3 -2.1568-0.34776-4.2643-1-6.2578l4.4726-2.7695c1.2121-0.78881 1.5967-2.4266 0.86133-3.6719l-1.4199-2.2695c-0.83268-1.2681-2.3916-1.6332-3.7012-0.86719l-4.1856 2.5938c-1.8164-2.0741-4.0583-3.798-6.6543-4.9902l1.0801-4.6094c0.33717-1.4383-0.54797-2.8679-1.9863-3.2051l-2.5976-0.60938c-0.17979-0.04215-0.35973-0.06508-0.53711-0.07031zm-4.6855 10.666-0.95312 4.0703a12 12 0 0 0-1.9766 0.38672l-2.1738-3.498a16 16 0 0 1 5.1035-0.95898zm7.7891 1.8262a16 16 0 0 1 4.1445 3.127l-3.5 2.166a12 12 0 0 0-1.5977-1.2246zm-19.467 3.6289 2.2422 3.6094a12 12 0 0 0-0.83203 1.3594l-3.9902-0.93555a16 16 0 0 1 2.5801-4.0332z" fill="url(#e)"/>
   <path d="m100.13 69.273c-1.2416-0.03662-2.373 0.80004-2.668 2.0586l-1.0801 4.6094c-2.8554-0.08569-5.6288 0.46291-8.1777 1.5137l-2.5977-4.1836c-0.73532-1.2453-2.3894-1.6345-3.6016-0.8457l-2.2812 1.4023c-1.2706 0.7751-1.6551 2.4129-0.86133 3.6719l2.7305 4.3926c-1.8403 1.8585-3.3478 4.0788-4.3574 6.6094l-5.4121-1.2676c-1.4383-0.33716-2.8679 0.54798-3.2051 1.9863l-0.60938 2.5977c-0.33716 1.4383 0.54993 2.8679 1.9883 3.2051l4.1699 0.97656h35.053l-1.4199-0.33203a12 12 0 0 0-0.1289-1.5117l3.6191-2.2402a16 16 0 0 1 0.51367 4.084h3.9941c3e-3 -2.1568-0.34776-4.2643-1-6.2578l4.4726-2.7695c1.2121-0.78881 1.5967-2.4266 0.86133-3.6719l-1.4199-2.2695c-0.83268-1.2681-2.3916-1.6332-3.7012-0.86719l-4.1856 2.5938c-1.8164-2.0741-4.0583-3.798-6.6543-4.9902l1.0801-4.6094c0.33717-1.4383-0.54797-2.8679-1.9863-3.2051l-2.5976-0.60938c-0.17979-0.04215-0.35973-0.06508-0.53711-0.07031zm-4.6855 10.666-0.95312 4.0703a12 12 0 0 0-1.9766 0.38672l-2.1738-3.498a16 16 0 0 1 5.1035-0.95898zm7.7891 1.8262a16 16 0 0 1 4.1445 3.127l-3.5 2.166a12 12 0 0 0-1.5977-1.2246zm-19.467 3.6289 2.2422 3.6094a12 12 0 0 0-0.83203 1.3594l-3.9902-0.93555a16 16 0 0 1 2.5801-4.0332z" fill="url(#g)"/>
  </g>
  <path d="m156 96v40c0 6.648-5.352 12-12 12h-96c-6.648 0-12-5.352-12-12v-40z" fill="url(#h)"/>
  <path d="m156 96v40c0 6.648-5.352 12-12 12h-96c-6.648 0-12-5.352-12-12v-40z" fill="url(#d)"/>
  <g aria-label="toolbox">
   <path d="m65.72 128.26q0.4 0 0.82-0.06 0.42-0.08 0.68-0.16v1.34q-0.28 0.14-0.8 0.22-0.52 0.1-1 0.1-0.84 0-1.56-0.28-0.7-0.3-1.14-1.02t-0.44-2.02v-6.24h-1.52v-0.84l1.54-0.7 0.7-2.28h1.04v2.46h3.1v1.36h-3.1v6.2q0 0.98 0.46 1.46 0.48 0.46 1.22 0.46z"/>
   <path d="m78.68 124.12q0 2.66-1.36 4.12-1.34 1.46-3.64 1.46-1.42 0-2.54-0.64-1.1-0.66-1.74-1.9-0.64-1.26-0.64-3.04 0-2.66 1.34-4.1t3.64-1.44q1.46 0 2.56 0.66 1.12 0.64 1.74 1.88 0.64 1.22 0.64 3zm-8.1 0q0 1.9 0.74 3.02 0.76 1.1 2.4 1.1 1.62 0 2.38-1.1 0.76-1.12 0.76-3.02t-0.76-2.98-2.4-1.08-2.38 1.08-0.74 2.98z"/>
   <path d="m90.78 124.12q0 2.66-1.36 4.12-1.34 1.46-3.64 1.46-1.42 0-2.54-0.64-1.1-0.66-1.74-1.9-0.64-1.26-0.64-3.04 0-2.66 1.34-4.1t3.64-1.44q1.46 0 2.56 0.66 1.12 0.64 1.74 1.88 0.64 1.22 0.64 3zm-8.1 0q0 1.9 0.74 3.02 0.76 1.1 2.4 1.1 1.62 0 2.38-1.1 0.76-1.12 0.76-3.02t-0.76-2.98-2.4-1.08-2.38 1.08-0.74 2.98z"/>
   <path d="m95.32 129.5h-1.76v-15.2h1.76z"/>
   <path d="m100.48 118q0 0.68-0.04 1.28-0.02 0.58-0.06 0.92h0.1q0.46-0.68 1.26-1.14t2.06-0.46q2 0 3.2 1.4 1.22 1.38 1.22 4.14t-1.22 4.16-3.2 1.4q-1.26 0-2.06-0.46t-1.26-1.1h-0.14l-0.36 1.36h-1.26v-15.2h1.76zm3.02 2.06q-1.7 0-2.36 0.98t-0.66 3.04v0.08q0 1.98 0.64 3.04 0.66 1.04 2.42 1.04 1.44 0 2.14-1.06 0.72-1.06 0.72-3.06 0-4.06-2.9-4.06z"/>
   <path d="m120.34 124.12q0 2.66-1.36 4.12-1.34 1.46-3.64 1.46-1.42 0-2.54-0.64-1.1-0.66-1.74-1.9-0.64-1.26-0.64-3.04 0-2.66 1.34-4.1t3.64-1.44q1.46 0 2.56 0.66 1.12 0.64 1.74 1.88 0.64 1.22 0.64 3zm-8.1 0q0 1.9 0.74 3.02 0.76 1.1 2.4 1.1 1.62 0 2.38-1.1 0.76-1.12 0.76-3.02t-0.76-2.98-2.4-1.08-2.38 1.08-0.74 2.98z"/>
   <path d="m125.26 124.02-3.7-5.24h2l2.76 4.04 2.74-4.04h1.98l-3.7 5.24 3.9 5.48h-2l-2.92-4.28-2.96 4.28h-1.98z"/>
  </g>
  <g fill="url(#c)" aria-label="toolbox">
   <path d="m65.72 128.26q0.4 0 0.82-0.06 0.42-0.08 0.68-0.16v1.34q-0.28 0.14-0.8 0.22-0.52 0.1-1 0.1-0.84 0-1.56-0.28-0.7-0.3-1.14-1.02t-0.44-2.02v-6.24h-1.52v-0.84l1.54-0.7 0.7-2.28h1.04v2.46h3.1v1.36h-3.1v6.2q0 0.98 0.46 1.46 0.48 0.46 1.22 0.46z"/>
   <path d="m78.68 124.12q0 2.66-1.36 4.12-1.34 1.46-3.64 1.46-1.42 0-2.54-0.64-1.1-0.66-1.74-1.9-0.64-1.26-0.64-3.04 0-2.66 1.34-4.1t3.64-1.44q1.46 0 2.56 0.66 1.12 0.64 1.74 1.88 0.64 1.22 0.64 3zm-8.1 0q0 1.9 0.74 3.02 0.76 1.1 2.4 1.1 1.62 0 2.38-1.1 0.76-1.12 0.76-3.02t-0.76-2.98-2.4-1.08-2.38 1.08-0.74 2.98z"/>
   <path d="m90.78 124.12q0 2.66-1.36 4.12-1.34 1.46-3.64 1.46-1.42 0-2.54-0.64-1.1-0.66-1.74-1.9-0.64-1.26-0.64-3.04 0-2.66 1.34-4.1t3.64-1.44q1.46 0 2.56 0.66 1.12 0.64 1.74 1.88 0.64 1.22 0.64 3zm-8.1 0q0 1.9 0.74 3.02 0.76 1.1 2.4 1.1 1.62 0 2.38-1.1 0.76-1.12 0.76-3.02t-0.76-2.98-2.4-1.08-2.38 1.08-0.74 2.98z"/>
   <path d="m95.32 129.5h-1.76v-15.2h1.76z"/>
   <path d="m100.48 118q0 0.68-0.04 1.28-0.02 0.58-0.06 0.92h0.1q0.46-0.68 1.26-1.14t2.06-0.46q2 0 3.2 1.4 1.22 1.38 1.22 4.14t-1.22 4.16-3.2 1.4q-1.26 0-2.06-0.46t-1.26-1.1h-0.14l-0.36 1.36h-1.26v-15.2h1.76zm3.02 2.06q-1.7 0-2.36 0.98t-0.66 3.04v0.08q0 1.98 0.64 3.04 0.66 1.04 2.42 1.04 1.44 0 2.14-1.06 0.72-1.06 0.72-3.06 0-4.06-2.9-4.06z"/>
   <path d="m120.34 124.12q0 2.66-1.36 4.12-1.34 1.46-3.64 1.46-1.42 0-2.54-0.64-1.1-0.66-1.74-1.9-0.64-1.26-0.64-3.04 0-2.66 1.34-4.1t3.64-1.44q1.46 0 2.56 0.66 1.12 0.64 1.74 1.88 0.64 1.22 0.64 3zm-8.1 0q0 1.9 0.74 3.02 0.76 1.1 2.4 1.1 1.62 0 2.38-1.1 0.76-1.12 0.76-3.02t-0.76-2.98-2.4-1.08-2.38 1.08-0.74 2.98z"/>
   <path d="m125.26 124.02-3.7-5.24h2l2.76 4.04 2.74-4.04h1.98l-3.7 5.24 3.9 5.48h-2l-2.92-4.28-2.96 4.28h-1.98z"/>
  </g>
 </g>
</svg>
